<?xml version="1.0" standalone="no"?>
<!DOCTYPE svg PUBLIC "-//W3C//DTD SVG 20010904//EN"
 "http://www.w3.org/TR/2001/REC-SVG-20010904/DTD/svg10.dtd">
<svg version="1.0" xmlns="http://www.w3.org/2000/svg"
 width="88.000000pt" height="97.000000pt" viewBox="0 0 88.000000 97.000000"
 preserveAspectRatio="xMidYMid meet">
<metadata>
Created by potrace 1.16, written by Peter Selinger 2001-2019
</metadata>
<g transform="translate(0.000000,97.000000) scale(0.100000,-0.100000)"
fill="#000000" stroke="none">
<path d="M145 602 c-61 -21 -145 -78 -145 -97 0 -8 9 -20 20 -27 19 -12 20
-24 20 -191 0 -149 2 -178 14 -174 8 3 32 11 55 18 l41 12 0 58 0 57 50 11
c162 35 257 178 187 282 -45 67 -139 87 -242 51z m205 -37 c53 -51 52 -129 -3
-191 -37 -43 -107 -80 -167 -88 -45 -6 -45 -6 -15 9 17 8 35 14 41 15 6 0 29
16 52 36 53 45 70 96 53 155 -23 76 -115 89 -223 32 -70 -37 -72 -38 -64 -24
9 14 89 61 134 78 21 7 64 12 99 10 53 -2 67 -7 93 -32z m-73 -41 c19 -27 26
-60 19 -89 -9 -36 -64 -92 -108 -110 l-38 -15 0 110 c0 81 -3 110 -12 111 -7
1 -2 5 12 10 40 13 112 4 127 -17z m-154 -365 c-5 -4 -20 -11 -35 -14 l-28 -7
0 174 0 175 33 9 32 10 3 -170 c1 -93 -1 -173 -5 -177z"/>
<path d="M620 610 c-75 -14 -134 -63 -169 -140 -18 -39 -21 -66 -21 -202 l0
-158 26 10 c34 13 34 13 34 -15 0 -22 4 -25 38 -25 92 0 223 63 262 125 24 39
27 111 4 143 -20 28 -65 52 -101 52 l-27 0 36 38 c35 35 58 78 58 107 0 24
-44 63 -75 67 -16 3 -46 2 -65 -2z m104 -39 c29 -29 13 -73 -46 -126 -28 -25
-54 -45 -59 -45 -5 0 -9 -5 -9 -11 0 -6 12 -10 28 -9 65 5 92 -1 121 -26 25
-21 31 -33 31 -65 0 -22 -7 -53 -15 -68 -29 -57 -173 -127 -242 -119 -24 2
-17 7 37 27 40 15 79 38 103 61 32 32 37 44 37 82 0 64 -33 93 -103 93 -86 0
-87 -1 -87 -109 l0 -94 -31 -11 c-18 -6 -34 -11 -35 -11 -2 0 -4 64 -4 143 0
116 4 149 19 182 49 108 193 168 255 106z m-58 -244 c69 -59 -10 -165 -142
-192 -26 -5 -27 -4 -6 4 21 10 22 16 22 105 0 104 -1 102 67 105 20 1 42 -7
59 -22z"/>
<path d="M563 548 c-28 -30 -45 -93 -41 -146 l3 -43 48 30 c73 47 104 111 77
162 -15 26 -61 25 -87 -3z"/>
</g>
</svg>
